<?xml version="1.0" encoding="UTF-8"?>
<svg width="505px" height="464px" viewBox="0 0 505 464" version="1.1" xmlns="http://www.w3.org/2000/svg" xmlns:xlink="http://www.w3.org/1999/xlink">
    <title>4B26D951-5663-4537-BE8A-6BB1EB3E03F3</title>
    <g id="website" stroke="none" stroke-width="1" fill="none" fill-rule="evenodd">
        <g id="terms-page" transform="translate(-703.000000, -194.000000)">
            <g id="1-screen" transform="translate(158.000000, 194.000000)">
                <g id="terms" transform="translate(545.000000, 0.000000)">
                    <path d="M373.810795,108.500417 L187.621435,1.70123904 C180.72868,-2.2655196 171.925758,0.992252089 169.280419,8.4888652 L169.201802,8.71145907 L169.201802,276.089386 C169.201802,281.575645 172.722546,286.133721 177.469283,288.888533 L366.588701,398.715667 L370.651261,399.414459 C376.3074,400.385121 381.476965,396.030947 381.476965,390.294058 L381.476965,121.813569 C381.476965,116.32731 378.555406,111.255229 373.810795,108.500417" id="Fill-186" fill="#4566A7"></path>
                    <path d="M366.131875,113.617102 L177.029456,5.03016431 C173.555456,3.01343839 169.201802,5.51889378 169.201802,9.53492894 L169.201802,275.227047 C169.201802,280.713306 172.123361,285.785388 176.867973,288.540199 L365.970393,398.407689 C369.444392,400.423353 373.798046,397.919172 373.798046,393.902712 L373.798046,126.930255 C373.798046,121.443996 370.876487,116.371914 366.131875,113.617102" id="Fill-187" fill="#BBCEF5"></path>
                    <path d="M373.798046,126.930255 C373.798046,121.443996 370.876487,116.371914 366.131875,113.617102 L177.029456,5.03016431 C173.555456,3.01343839 169.201802,5.51868138 169.201802,9.53492894 L169.201802,34.4114928 L373.798046,151.895601 L373.798046,126.930255" id="Fill-188" fill="#5986E0"></path>
                    <path d="M186.297703,27.8806567 C186.297703,29.4853291 185.163076,30.1310212 183.762852,29.322844 C182.362629,28.5146669 181.228001,26.5588994 181.228001,24.9540146 C181.228001,23.3495546 182.362629,22.7038625 183.762852,23.5120396 C185.163076,24.3202168 186.297703,26.2761967 186.297703,27.8806567" id="Fill-189" fill="#FFFFFF"></path>
                    <path d="M196.526347,34.1640483 C196.526347,35.7687206 195.391719,36.4144128 193.991496,35.6062356 C192.591272,34.7980585 191.45452,32.8420786 191.45452,31.2374062 C191.45452,29.6329462 192.591272,28.9872541 193.991496,29.7954312 C195.391719,30.6036084 196.526347,32.5595883 196.526347,34.1640483" id="Fill-190" fill="#FFFFFF"></path>
                    <path d="M206.327911,39.8771492 C206.327911,41.4816092 205.193284,42.1273014 203.793061,41.3191242 C202.392837,40.5111594 201.256085,38.5551796 201.256085,36.9505072 C201.256085,35.3458348 202.392837,34.7001426 203.793061,35.5083198 C205.193284,36.316497 206.327911,38.2724769 206.327911,39.8771492" id="Fill-191" fill="#FFFFFF"></path>
                    <path d="M358.457214,124.959195 C358.452956,122.644048 356.812633,119.821269 354.796227,118.657324 C352.773445,117.491255 351.139497,118.423686 351.14162,120.738832 C351.143747,123.056102 352.784069,125.885253 354.798351,127.042826 C356.814758,128.202523 358.461455,127.265845 358.457214,124.959195 Z M354.545504,117.085574 C354.71761,117.185401 354.887592,117.283105 355.059698,117.382932 C355.09157,117.40842 355.123441,117.436032 355.155313,117.457271 C356.037092,118.03712 356.84663,118.822995 357.569052,119.817021 C358.7398,121.433376 359.440974,123.121946 359.642827,124.865739 C359.789436,126.121016 359.62158,127.14053 359.149881,127.922157 C359.052141,128.08358 358.939528,128.228011 358.82904,128.385186 C359.086137,128.595461 359.270992,128.877951 359.447348,129.179557 C360.276009,130.611125 361.104669,132.042692 361.937579,133.472136 C362.164929,133.858701 362.364658,134.243143 362.428401,134.648825 C362.428401,134.750776 362.428401,134.854851 362.428401,134.956803 C362.419902,134.984415 362.411403,135.009902 362.402904,135.03539 C362.300915,135.4347 362.06294,135.608867 361.661359,135.504791 C361.251278,135.396468 360.907065,135.052382 360.613847,134.548997 C359.80006,133.147166 358.986273,131.745334 358.172486,130.343502 C357.936637,129.935697 357.664666,129.534263 357.600923,129.117962 C357.241837,129.109466 356.901874,129.137078 356.540663,129.09035 C355.535647,128.960787 354.498759,128.436162 353.47037,127.478243 C351.402969,125.551787 350.215222,123.236641 349.930503,120.619889 C349.788143,119.313636 350.028242,118.285627 350.589182,117.548603 C351.405093,116.475989 352.603464,116.280583 354.158795,116.917779 C354.288406,116.968754 354.415893,117.028226 354.545504,117.085574 L354.545504,117.085574 Z" id="Fill-192" fill="#FFFFFF"></path>
                    <polyline id="Fill-193" fill="#FFFFFF" points="345.462111 370.993385 193.802391 283.465993 193.802391 48.5372826 345.462111 136.065524 345.462111 370.993385"></polyline>
                    <path d="M214.24693,178.256407 C214.174688,178.1141 214.136442,178.035513 214.136442,178.035513 C214.159814,178.099232 214.195935,178.173572 214.24693,178.256407" id="Fill-194" fill="#DAEBFF"></path>
                    <polyline id="Fill-195" fill="#DAEBFF" points="327.81377 162.71944 207.719636 93.4073635 207.719636 89.3696637 327.81377 158.681741 327.81377 162.71944"></polyline>
                    <polyline id="Fill-196" fill="#DAEBFF" points="327.81377 175.021575 207.719636 105.709498 207.719636 101.673922 327.81377 170.983875 327.81377 175.021575"></polyline>
                    <polyline id="Fill-197" fill="#DAEBFF" points="327.81377 239.709731 207.719636 170.397654 207.719636 166.359955 327.81377 235.672032 327.81377 239.709731"></polyline>
                    <polyline id="Fill-198" fill="#DAEBFF" points="263.65846 168.063392 207.719636 135.778786 207.719636 126.477845 263.65846 158.762452 263.65846 168.063392"></polyline>
                    <polyline id="Fill-199" fill="#DAEBFF" points="251.523898 183.273265 207.719636 157.991445 207.719636 146.789536 251.523898 172.071356 251.523898 183.273265"></polyline>
                    <polyline id="Fill-200" fill="#DAEBFF" points="300.901431 211.770803 257.587992 186.773596 257.587992 175.571687 300.901431 200.568894 300.901431 211.770803"></polyline>
                    <polyline id="Fill-201" fill="#DAEBFF" points="327.81377 227.303522 306.965525 215.271134 306.965525 204.069225 327.81377 216.101613 327.81377 227.303522"></polyline>
                    <polyline id="Fill-202" fill="#DAEBFF" points="207.719636 114.0419 207.719636 118.0796 291.584314 166.481022 291.584314 162.445446 207.719636 114.0419"></polyline>
                    <polyline id="Fill-203" fill="#DAEBFF" points="327.81377 256.455247 207.719636 187.14317 207.719636 183.10547 327.81377 252.417547 327.81377 256.455247"></polyline>
                    <polyline id="Fill-204" fill="#DAEBFF" points="327.81377 268.757381 207.719636 199.445305 207.719636 195.409729 327.81377 264.719682 327.81377 268.757381"></polyline>
                    <polyline id="Fill-205" fill="#DAEBFF" points="327.81377 281.125359 207.719636 211.815406 207.719636 207.777707 327.81377 277.089784 327.81377 281.125359"></polyline>
                    <polyline id="Fill-206" fill="#DAEBFF" points="263.65846 261.799199 207.719636 229.514592 207.719636 220.213652 263.65846 252.498259 263.65846 261.799199"></polyline>
                    <polyline id="Fill-207" fill="#DAEBFF" points="251.523898 276.938981 207.719636 251.659284 207.719636 240.455251 251.523898 265.737072 251.523898 276.938981"></polyline>
                    <polyline id="Fill-208" fill="#5986E0" points="300.901431 305.438642 257.587992 280.439312 257.587992 269.237403 300.901431 294.234609 300.901431 305.438642"></polyline>
                    <polyline id="Fill-209" fill="#DAEBFF" points="327.81377 320.969237 306.965525 308.936849 306.965525 297.73494 327.81377 309.767328 327.81377 320.969237"></polyline>
                    <polyline id="Fill-210" fill="#DAEBFF" points="269.501578 261.162003 269.501578 265.199703 327.81377 298.854281 327.81377 294.816581 269.501578 261.162003"></polyline>
                    <path d="M311.565653,188.266759 C311.042959,187.417165 310.53089,186.584562 310.01882,185.754083 C309.239029,184.492434 308.482611,183.213794 307.675199,181.977633 C306.92303,180.826432 305.756531,180.626777 305.529181,181.569828 C305.384696,182.17304 305.58655,182.852716 306.037001,183.581244 C307.556211,186.036573 309.069048,188.494026 310.586134,190.951479 C311.302181,192.1133 312.047976,192.521106 312.740651,192.132416 C315.651586,190.503318 318.562521,188.872096 321.471331,187.240874 C321.549948,187.198394 321.626439,187.151666 321.696557,187.096442 C322.263871,186.641909 322.083265,185.386633 321.316223,184.43721 C320.712788,183.689567 320.062609,183.445308 319.501669,183.763906 C316.930697,185.223086 314.36185,186.686513 311.793003,188.147816 C311.722886,188.186048 311.650644,188.222156 311.565653,188.266759 Z M314.578577,203.459641 C314.028261,203.143166 313.480071,202.826692 312.929755,202.508094 C312.859638,202.450747 312.78952,202.380655 312.719403,202.333927 C310.518141,200.887492 308.461364,198.978027 306.583067,196.575798 C302.941211,191.91577 300.699578,186.932895 299.911288,181.654787 C299.813549,180.994227 299.764679,180.350659 299.692437,179.700719 C299.692437,179.069895 299.692437,178.441194 299.692437,177.81037 C299.709435,177.710543 299.728558,177.610715 299.743432,177.50664 C299.830547,176.863072 299.881542,176.189768 300.011153,175.580183 C300.746323,172.135076 302.480136,169.964361 305.229588,169.163618 C308.652593,168.169592 312.504801,169.407876 316.707597,172.835992 C320.071108,175.580183 322.803562,179.178218 324.896461,183.502656 C327.155091,188.169056 328.09424,192.542346 327.741528,196.554558 C327.454684,199.806382 326.296684,202.155512 324.310024,203.582832 C322.132135,205.150334 319.418803,205.341493 316.176404,204.13082 C315.647336,203.935414 315.111894,203.684783 314.578577,203.459641 L314.578577,203.459641 Z" id="Fill-211" fill="#9BF34B"></path>
                    <path d="M151.840305,307.983179 C164.996882,315.576433 164.918266,327.931667 151.666074,335.580145 C138.413883,343.228624 117.006823,343.273227 103.850246,335.679973 C90.6957944,328.086718 90.7722861,315.731484 104.024478,308.083006 C117.276669,300.434528 138.683728,300.389924 151.840305,307.983179" id="Fill-212" fill="#EBEBF6"></path>
                    <path d="M382.452235,430.639196 C395.608812,438.232451 395.530195,450.587685 382.278004,458.234039 C369.025812,465.882517 347.618753,465.927121 334.462176,458.33599 C321.305599,450.742736 321.384216,438.387502 334.636407,430.739024 C347.888599,423.090545 369.295658,423.045942 382.452235,430.639196" id="Fill-213" fill="#EBEBF6"></path>
                    <path d="M138.566866,151.566383 C138.520121,151.50054 138.471251,151.286017 138.422382,150.867591 L138.420257,150.856971 C138.35014,150.568109 138.267274,150.287743 138.173784,150.022244 C137.28138,148.13402 134.410816,147.295045 133.805256,147.135746 C133.76701,147.12725 133.730889,147.118754 133.692643,147.108134 L133.690519,147.108134 C132.553767,146.815024 131.270405,146.417838 130.050787,146.012157 C128.125746,145.568243 125.554774,145.570367 125.554774,145.570367 C125.554774,145.570367 123.727471,150.538373 120.419204,151.523903 C121.092756,153.537443 123.175031,154.894671 125.172315,155.449032 C127.658296,156.139328 127.658296,156.139328 127.658296,156.139328 C127.658296,156.139328 136.677945,159.442128 138.0208,157.38186 C138.71985,156.309247 138.95145,153.790198 138.566866,151.566383" id="Fill-214" fill="#DAA782"></path>
                    <path d="M114.316864,317.991407 C114.089514,317.564485 109.837849,315.145264 109.837849,315.145264 L105.641428,317.303235 L105.47782,322.997645 L107.687581,327.723516 L112.661668,328.517888 L115.578978,325.656877 L114.958545,322.676923 C114.958545,322.676923 114.185129,321.12004 114.316864,317.991407" id="Fill-215" fill="#FFCDA8"></path>
                    <path d="M114.958545,322.676923 C114.905426,325.06216 112.912391,325.858656 111.097837,325.771572 C107.5176,325.631389 105.511817,318.953573 105.641428,317.303235 C105.380081,317.931935 104.264577,320.017691 104.394188,323.339607 C104.481303,325.123756 105.909149,327.455894 107.122392,329.940959 C108.182653,332.086186 109.408645,334.828254 110.403038,335.830776 C112.532057,337.954763 118.124452,340.654351 120.77829,336.497708 C122.065901,334.439564 114.40398,321.680773 114.958545,322.676923" id="Fill-216" fill="#1E335C"></path>
                    <path d="M142.663423,301.925567 C141.454429,301.343594 137.954932,300.120178 137.954932,300.120178 L131.111048,302.439572 L131.111048,304.410632 C131.111048,304.410632 130.686094,308.342132 132.906478,310.064686 C135.133238,311.795736 134.718907,311.655553 137.309002,311.857331 C139.909721,312.03787 143.362472,311.729892 144.643709,310.820826 C145.916446,309.930875 146.080053,307.284387 146.080053,307.284387 C146.080053,307.284387 143.47296,305.795472 142.663423,301.925567" id="Fill-217" fill="#FFCDA8"></path>
                    <path d="M146.080053,307.284387 C143.927661,311.655553 130.686094,308.614003 131.111048,304.410632 C129.672578,306.44966 128.661188,310.948265 129.506846,312.71967 C130.365253,314.516563 140.901989,315.366158 140.901989,315.366158 C140.901989,315.366158 158.475963,322.649311 160.685724,318.981185 C164.440192,312.632587 154.829857,312.551875 146.080053,307.284387" id="Fill-218" fill="#1E335C"></path>
                    <path d="M128.159742,224.058069 L129.092516,265.346258 C129.092516,265.346258 126.872131,271.121379 126.538542,276.046906 C126.200704,280.96606 128.580446,289.774236 130.785958,303.550417 C136.539835,306.182037 142.663423,301.925567 142.663423,301.925567 C142.663423,301.925567 139.495391,284.266737 141.989871,269.558125 C141.989871,269.558125 143.861793,266.442235 143.908538,261.977614 C145.937694,254.828273 151.508841,237.853367 152.044283,226.617474 C152.590349,215.390077 151.292115,210.024885 151.292115,210.024885 L128.159742,224.058069" id="Fill-219" fill="#2B4579"></path>
                    <path d="M109.542506,220.496142 C109.191919,226.048245 109.890968,270.607374 109.890968,270.607374 C109.890968,270.607374 105.47782,277.731228 104.613039,282.663126 C103.782254,287.588653 105.641428,317.303235 105.641428,317.303235 C105.641428,317.303235 107.604715,321.0457 111.966868,320.017691 C114.491095,319.429346 114.905426,317.303235 114.905426,317.303235 C114.905426,317.303235 118.351803,280.458427 121.851299,276.722334 C131.96733,258.035494 133.852001,231.368833 133.852001,231.368833 C133.852001,231.368833 150.743924,219.835582 151.292115,210.024885 C149.029234,209.015991 113.872787,207.663011 113.872787,207.663011 C113.872787,207.663011 110.305298,209.253878 109.542506,220.496142" id="Fill-220" fill="#4566A7"></path>
                    <path d="M195.253609,203.567964 C195.468211,202.620666 201.502558,205.934086 202.303597,204.336847 C202.883659,203.147414 192.189691,196.711733 188.813431,197.767355 C184.300419,197.620799 162.761624,187.20689 159.816693,186.935019 C156.18971,186.191624 152.252511,192.574206 152.86232,193.629827 C157.974517,200.139848 179.696042,201.335653 186.0916,203.047587 C187.746796,203.729387 189.072653,208.026213 192.363922,211.114491 C195.661565,214.200644 201.923263,214.682789 202.303597,213.746111 C203.448848,209.069091 194.915771,208.166396 195.253609,203.567964" id="Fill-221" fill="#FFCDA8"></path>
                    <path d="M153.748349,161.952681 C153.748349,161.952681 151.674573,147.04229 144.858311,146.258539 L144.845562,146.254291 C144.820065,146.250043 144.786068,146.247919 144.745698,146.243671 L144.732949,146.243671 C144.694703,146.241547 144.652208,146.239423 144.603338,146.237299 C144.475852,146.228803 144.348366,146.226994 144.218755,146.228803 C142.699544,146.211811 139.127805,146.320135 139.127805,146.320135 L149.386196,184.957587 C149.386196,184.957587 150.433707,190.91962 152.983432,193.799746 C154.003321,194.56863 159.527724,189.568764 159.93568,186.949887 C156.716653,175.900906 153.748349,161.952681 153.748349,161.952681" id="Fill-222" fill="#2B4579"></path>
                    <path d="M110.137441,160.198268 C110.162939,160.17278 110.192685,160.145168 110.222432,160.117556 C110.19906,160.128176 110.171438,160.134548 110.148065,160.143044 L110.137441,160.198268" id="Fill-223" fill="#512C20"></path>
                    <line x1="145.890949" y1="129.69781" x2="145.890949" y2="129.69781" id="Fill-224" fill="#FFCDA8"></line>
                    <path d="M150.032126,188.281627 C150.750298,186.678017 155.732884,183.11609 155.471538,178.424202 C154.963717,168.940599 145.024043,157.564523 139.180925,146.322259 C139.100183,147.539303 137.719083,154.765108 133.688394,155.854714 C129.65983,156.963435 121.572954,151.001403 121.572954,151.001403 C116.101671,152.949099 109.723111,160.606073 109.723111,160.606073 L111.531291,192.036837 C111.531291,192.036837 113.320347,198.890944 113.687932,202.166132 C114.070391,205.422205 111.310314,211.390609 111.310314,211.390609 C111.310314,211.390609 113.443584,214.614822 122.718205,219.138915 C131.805847,223.588668 150.032126,213.195998 151.309113,210.135333 C151.79356,208.939528 149.30333,189.897982 150.032126,188.281627" id="Fill-225" fill="#5986E0"></path>
                    <path d="M145.946193,129.891093 C146.024809,126.923883 142.518939,125.4201 142.518939,125.4201 C139.051314,124.77016 134.045355,124.549265 130.924068,127.612055 C127.216344,131.252569 125.754502,134.249515 124.966212,136.872639 C124.964088,136.876887 124.428645,140.759536 124.857849,143.08955 C125.342297,145.296373 126.005225,147.3885 126.889129,148.461114 C128.96503,150.980163 136.745938,154.308451 138.190782,154.308451 C139.618627,154.308451 142.455196,152.944851 142.971515,151.901973 C143.48146,150.852724 145.398002,138.843699 145.164277,137.875161 C144.962424,136.879011 144.501349,136.097384 144.501349,136.097384 C144.501349,136.097384 144.658582,135.742678 145.09416,134.727412 C145.32151,134.198539 145.669973,131.921625 145.946193,129.891093" id="Fill-226" fill="#FFCDA8"></path>
                    <path d="M124.825977,192.310831 C127.01874,202.777841 150.032126,188.281627 150.032126,188.281627 C150.032126,188.281627 128.873665,199.048119 124.825977,192.310831" id="Fill-227" fill="#3E4FB6"></path>
                    <polyline id="Fill-228" fill="#2B4579" points="140.385669 227.218562 114.909675 221.834254 122.02978 188.10746 147.497275 193.49814 140.385669 227.218562"></polyline>
                    <path d="M136.775685,202.15976 L128.115122,200.324635 C127.43732,200.182328 127.003867,199.515396 127.148351,198.83572 L128.017382,194.747045 C128.161867,194.069493 128.82692,193.636199 129.504721,193.78063 L138.154661,195.609384 C138.832462,195.753815 139.265916,196.418623 139.123556,197.096175 L138.265149,201.189098 C138.120664,201.868774 137.453487,202.304191 136.775685,202.15976" id="Fill-229" fill="#FFFFFF"></path>
                    <path d="M113.687932,209.58522 L113.687932,209.58522 C113.687932,209.58522 118.173322,210.23516 122.569472,211.004043 L122.571596,211.006167 L122.616217,211.012539 C122.726705,211.031655 122.837193,211.050771 122.947681,211.072011 C125.871364,211.59876 129.474975,212.614026 129.474975,212.614026 C133.063711,214.321711 138.046297,216.560394 139.457145,216.944836 C143.404968,218.053557 144.919929,216.645354 146.101301,213.457249 C146.972457,211.044399 147.006453,208.25348 145.795334,207.512208 C144.055147,206.458711 141.649908,205.870366 140.7915,205.694075 C139.397651,205.417957 135.073744,205.311757 131.986453,205.271402 C129.576964,205.218302 127.532935,204.523758 126.192205,203.916298 L126.211328,203.89081 C122.607717,202.106661 117.678251,199.048119 117.678251,199.048119 C114.59096,197.387161 112.370575,196.012941 112.370575,196.012941 C103.72701,197.378665 100.807576,203.446897 100.807576,203.446897 C100.807576,203.446897 100.881943,203.57646 101.024302,203.818594 C102.324661,205.498668 108.176278,207.754343 113.687932,209.58522" id="Fill-230" fill="#FFCDA8"></path>
                    <path d="M114.803437,159.306193 C108.261269,158.545805 106.053633,164.790328 105.326962,169.77745 C105.326962,169.77745 103.333927,183.57912 102.806984,186.442254 C101.474753,193.474776 100.148897,201.660623 100.807576,203.446897 C100.807576,203.446897 103.72701,197.378665 112.370575,196.012941 L119.305825,168.643241 C119.305825,168.643241 122.136018,160.17278 114.803437,159.306193" id="Fill-231" fill="#2B4579"></path>
                    <path d="M120.149358,120.037916 C117.089689,120.161107 110.111944,127.110794 110.468905,135.113978 C110.866238,143.896665 117.136434,150.045608 117.136434,150.045608 C117.136434,150.045608 119.384441,148.431378 121.150125,146.662097 C124.396774,135.842505 120.523318,121.388772 120.149358,120.037916" id="Fill-232" fill="#2B4579"></path>
                    <path d="M126.748894,124.018268 C126.748894,126.516077 124.702741,128.514749 122.165765,128.514749 C119.630914,128.514749 117.580511,126.516077 117.580511,124.018268 C117.580511,121.533203 119.630914,119.500547 122.165765,119.500547 C124.702741,119.500547 126.748894,121.533203 126.748894,124.018268" id="Fill-233" fill="#5986E0"></path>
                    <path d="M125.554774,145.570367 C125.554774,145.570367 123.778466,140.787148 125.554774,140.525897 C128.816296,140.464302 130.556483,145.226281 131.856842,143.883921 C133.065836,142.654133 133.618276,142.150748 134.500056,139.846221 C135.230977,137.955873 134.74228,135.407088 136.061762,135.294517 C147.269925,135.005654 145.948318,128.686792 145.948318,128.686792 C145.948318,128.686792 136.675821,113.249653 123.070917,124.831755 C115.360126,131.397 117.992717,139.659311 119.658536,142.116764 C122.558848,146.368986 125.554774,145.570367 125.554774,145.570367" id="Fill-234" fill="#1E335C"></path>
                    <path d="M394.758904,289.912295 C390.611352,293.493337 381.738312,294.383288 381.738312,294.383288 C381.211369,300.587455 377.195554,308.091502 377.195554,308.091502 C377.195554,308.091502 383.782341,309.13438 387.787533,308.739318 C391.83097,308.352752 396.677571,307.36085 398.324268,302.947205 C399.019068,301.398818 394.758904,289.912295 394.758904,289.912295" id="Fill-235" fill="#FFCDA8"></path>
                    <path d="M323.787331,446.872831 C323.787331,446.872831 335.482066,446.560605 338.242142,446.96841 C338.242142,446.96841 344.91392,452.569365 355.928729,453.767294 L355.928729,460.538565 C355.928729,460.538565 351.337101,464.720696 343.377712,461.764106 L343.377712,460.844419 C343.377712,460.844419 334.296444,461.354176 329.604951,459.722954 C329.604951,459.722954 320.523684,458.193683 319.707772,452.176427 C319.707772,452.176427 320.115728,447.586491 323.787331,446.872831" id="Fill-236" fill="#1E335C"></path>
                    <path d="M361.170537,427.302412 C361.718728,425.741281 363.448291,422.967354 368.694348,424.090943 C368.694348,424.090943 369.329654,430.418301 374.375984,431.437815 C379.420188,432.457329 380.442202,432.661232 380.442202,432.661232 L383.501871,435.823849 L386.155709,438.100763 C386.155709,438.100763 385.849742,442.554765 384.62375,443.370376 C383.399882,444.185987 378.706265,445.411528 377.074442,443.370376 C375.442618,441.331348 374.012648,439.460115 374.012648,439.460115 L374.012648,438.372634 C374.012648,438.372634 370.398414,436.834867 367.993174,435.416044 C367.993174,435.416044 366.00014,434.288206 364.094221,432.572025 L364.094221,432.569901 C361.162038,429.483747 361.170537,427.302412 361.170537,427.302412" id="Fill-237" fill="#1E335C"></path>
                    <path d="M368.730469,426.025896 C369.019438,429.018594 374.429103,433.096649 377.966845,437.176829 C381.502463,441.257009 385.312176,439.897126 386.128087,438.536181 C386.943999,437.176829 387.762036,411.066653 387.762036,411.066653 C388.305977,401.003202 382.59247,387.677305 383.015299,383.597126 C383.438128,379.516946 379.870639,362.11087 382.048529,353.1349 C382.17814,352.595407 382.292877,352.034675 382.394866,351.45695 C376.054552,361.029761 364.765648,362.416725 364.765648,362.416725 C363.856246,366.874974 360.900691,376.239634 360.900691,376.239634 C360.90919,376.262998 365.99589,388.775407 367.627714,399.91572 C369.259537,411.066653 368.443625,423.035322 368.730469,426.025896" id="Fill-238" fill="#2B4579"></path>
                    <path d="M382.048529,329.473682 L382.048529,329.473682 C379.481806,331.421378 368.443625,338.447528 368.443625,338.447528 C362.179803,342.599923 354.62412,342.497972 348.742756,341.412614 C342.338699,340.74993 339.060179,338.449652 339.058054,338.447528 C339.058054,338.449652 335.250466,360.207778 335.250466,369.997235 C335.250466,379.788817 341.235943,410.251042 341.235943,417.049926 C341.235943,423.850933 338.242142,446.96841 338.242142,446.96841 C345.124273,453.767294 355.928729,453.767294 355.928729,453.767294 C357.288582,451.592331 360.552229,423.579062 361.642236,419.227012 C362.730118,414.874963 357.832523,396.651152 357.832523,396.651152 C357.832523,396.651152 355.877735,389.266048 360.900691,376.239634 C360.900691,376.239634 362.704621,370.523984 363.926364,365.89794 C377.622632,361.191184 382.394866,351.45695 382.394866,351.45695 C383.969321,342.444872 382.048529,329.473682 382.048529,329.473682" id="Fill-239" fill="#4566A7"></path>
                    <path d="M371.930373,265.751939 C371.930373,265.751939 369.459265,266.059918 368.900451,262.449139 C356.557661,256.527463 348.222188,264.842873 348.222188,264.842873 C348.222188,264.842873 350.366081,264.832253 351.638818,266.234085 C352.911555,267.657156 351.334976,273.959026 351.334976,273.959026 C351.334976,273.959026 351.921412,280.522147 359.477095,279.564229 C359.734192,279.481393 359.995539,279.387938 360.259011,279.279614 C365.360584,277.198107 369.261662,275.224923 371.666902,271.310414 C373.262604,268.627818 371.930373,265.751939 371.930373,265.751939" id="Fill-240" fill="#DAA782"></path>
                    <path d="M380.265846,264.273644 C378.319557,264.895973 374.820061,265.460953 371.930373,265.751939 C378.332306,270.598878 376.796097,284.606575 376.796097,284.606575 C376.796097,284.606575 378.544783,291.445814 381.357978,296.995792 C387.711041,300.838085 395.749047,298.501699 397.026033,291.910967 C395.927527,288.151509 393.099458,279.082084 393.099458,279.082084 C393.099458,279.082084 390.526362,261.05368 380.265846,264.273644" id="Fill-241" fill="#2B4579"></path>
                    <path d="M371.930373,265.751939 C372.472189,271.342274 362.147931,276.136113 358.061998,275.99593 C350.92702,275.762292 351.334976,273.959026 351.334976,273.959026 C351.334976,273.959026 339.96958,281.254923 335.254715,288.42338 C338.439746,304.08991 338.484366,335.752188 338.25914,340.044767 C339.412891,358.638151 377.635381,339.307743 382.647714,333.955295 C384.957339,307.938575 383.661229,297.872999 386.266197,288.081418 C388.881789,278.300456 386.094091,265.824155 371.930373,265.751939" id="Fill-242" fill="#5986E0"></path>
                    <path d="M343.520071,243.144219 C343.330967,243.275906 343.194981,243.443701 343.124864,243.651852 C342.10285,251.291834 344.000269,263.802119 345.946559,264.513655 C348.982855,265.611756 354.1163,263.649192 354.1163,263.649192 L354.129049,259.921594 C353.474619,246.294092 344.91817,243.509545 343.520071,243.144219" id="Fill-243" fill="#FFCDA8"></path>
                    <path d="M372.32983,241.251746 C368.207776,232.955452 357.116476,231.880714 351.734433,232.781285 C345.814823,233.938858 343.845161,239.973106 343.838787,239.990098 C343.560442,241.109439 343.30122,242.466667 343.326717,243.590256 C343.428706,244.64163 343.611436,245.688756 343.928027,246.57021 C344.004519,246.765617 344.08526,246.963148 344.1745,247.160679 C344.1745,247.160679 344.369979,251.820707 345.823322,252.58959 C346.456504,252.92518 346.705102,254.103993 346.783718,255.32741 L346.783718,255.346526 C346.790093,255.437857 346.796467,255.529189 346.798592,255.62052 L346.798592,255.626892 C346.800716,255.682116 346.802841,255.741587 346.804966,255.805307 L346.807091,255.805307 L346.807091,255.822299 C346.817715,256.126029 346.826214,256.495603 346.81134,256.693134 C346.804966,257.107311 346.785843,257.487505 346.76672,257.795483 L348.239186,258.747029 C348.29018,258.150189 348.470786,256.482859 348.931861,255.376262 C348.963732,255.342278 349.779644,254.547907 350.867526,255.219087 C353.01142,257.7084 352.191258,261.533701 352.922179,263.058724 C353.774212,264.774905 358.41471,267.319442 366.32098,264.774905 C369.552755,263.141559 377.482398,251.623176 372.32983,241.251746" id="Fill-244" fill="#1E335C"></path>
                    <path d="M326.247815,304.304433 C326.247815,304.304433 322.843933,303.709716 322.340362,302.254785 C321.418212,298.023802 310.601007,286.414088 308.482611,282.552679 L301.252018,285.203415 C301.252018,285.203415 312.243454,312.660199 315.485854,316.052206 C317.78273,318.41408 320.867897,321.81246 324.114545,320.3639 C327.352695,318.940829 333.089575,313.970699 333.089575,313.970699 L326.247815,304.304433" id="Fill-245" fill="#FFCDA8"></path>
                    <path d="M308.82045,272.257713 C308.474112,271.225455 308.227639,269.377586 308.227639,268.124433 C308.227639,266.450731 304.441298,265.484317 305.410194,268.387808 C306.376964,271.291298 306.835914,273.047836 304.634652,273.487501 C302.433391,273.927167 299.775303,263.634324 299.069879,262.051954 C298.366581,260.467459 295.372779,259.762295 296.868618,263.460157 C298.366581,267.155895 297.837513,268.300724 297.837513,268.300724 C293.700585,270.851633 293.611345,279.213771 297.044973,281.237931 C300.478602,283.262091 302.679864,287.31041 302.679864,287.31041 L308.754582,282.998716 C308.754582,282.998716 307.258744,280.885349 308.138398,279.390062 C308.58885,278.625426 308.990431,277.083412 309.209283,275.696448 C309.381389,274.298864 308.82045,272.257713 308.82045,272.257713" id="Fill-246" fill="#FFCDA8"></path>
                    <path d="M329.539084,293.38289 C329.539084,293.38289 326.003466,297.193323 322.340362,302.254785 C321.870788,309.461474 327.40369,315.82494 333.958606,313.788036 C336.87804,311.056588 343.732548,305.360054 343.732548,305.360054 C343.732548,305.360054 357.505308,293.858663 349.690404,286.683834 C340.005701,277.811939 329.539084,293.38289 329.539084,293.38289" id="Fill-247" fill="#2B4579"></path>
                    <path d="M326.381675,420.762655 C326.292435,420.187055 325.867481,419.624198 325.102563,419.182409 L287.632242,397.55597 C286.019541,396.627788 283.482566,396.561944 281.759377,397.364811 L240.177625,373.365879 C247.590948,367.781917 250.559252,360.855594 249.095285,354.17353 C250.805725,346.363629 246.439323,338.17141 236.000327,332.147782 C218.148008,321.84432 189.306378,321.784848 171.58367,332.013971 C161.301907,337.946267 157.02262,346.040783 158.724561,353.801832 C157.011996,361.611733 161.380523,369.801828 171.817394,375.82758 C187.950774,385.139141 213.057058,386.082191 230.824387,378.62912 C230.892379,378.682219 230.964621,378.733195 231.047487,378.782047 L275.614542,404.501409 L275.614542,405.939348 L275.620916,405.939348 C275.657037,406.565924 276.084116,407.186129 276.914901,407.664026 L314.385223,429.28834 C316.108411,430.28449 318.89186,430.290862 320.604425,429.303208 L325.123811,426.692828 C325.943972,426.221303 326.362552,425.60747 326.394424,424.985142 L326.400798,424.985142 L326.400798,420.762655 L326.381675,420.762655" id="Fill-248" fill="#EBEBF6"></path>
                    <path d="M171.585794,335.970959 C153.860962,346.200082 153.9672,362.843646 171.819519,373.147108 C189.671838,383.450571 218.513468,383.512166 236.236176,373.283044 C253.961009,363.053921 253.85477,346.408233 236.002451,336.10477 C218.150133,325.801308 189.308502,325.741836 171.585794,335.970959" id="Fill-249" fill="#4566A7"></path>
                    <path d="M171.585794,329.335623 C153.860962,339.562622 153.9672,356.20831 171.819519,366.511772 C189.671838,376.815234 218.513468,376.87683 236.236176,366.647707 C253.961009,356.418585 253.85477,339.772896 236.002451,329.469434 C218.150133,319.165972 189.308502,319.1065 171.585794,329.335623" id="Fill-250" fill="#5986E0"></path>
                    <path d="M176.553507,332.203006 C161.554755,340.858254 161.643995,354.944537 176.753235,363.665629 C191.860351,372.384597 216.267586,372.435573 231.268464,363.780324 C246.267216,355.122952 246.177976,341.036669 231.068735,332.315577 C215.961619,323.596609 191.554384,323.545633 176.553507,332.203006" id="Fill-251" fill="#FFFFFF"></path>
                    <path d="M230.346313,371.118701 C230.344189,371.144188 230.339939,371.1718 230.339939,371.199412 L230.339939,371.116577 L230.346313,371.118701" id="Fill-252" fill="#007DED"></path>
                    <path d="M231.049612,372.180694 L276.606809,398.473533 C276.710923,398.535128 276.825661,398.586104 276.942523,398.632832 C276.978644,398.645576 277.014765,398.660444 277.050886,398.673188 C277.138002,398.702923 277.227242,398.730535 277.318607,398.753899 C277.358978,398.764519 277.399349,398.777263 277.439719,398.787883 C277.550207,398.811247 277.66282,398.830363 277.775433,398.845231 C277.854049,398.85585 277.932666,398.862222 278.011282,398.86647 C278.051653,398.870718 278.092024,398.872842 278.130269,398.874966 C278.805946,398.904702 279.494372,398.777263 280.008566,398.482029 L280.775608,398.038115 L282.479674,397.054709 C282.921626,396.799831 283.151101,396.468489 283.172349,396.132899 L283.178723,399.966696 L283.174474,399.966696 C283.191472,400.332022 282.961997,400.699471 282.479674,400.97559 L280.008566,402.402909 C279.071543,402.942402 277.550207,402.940278 276.606809,402.396537 L231.049612,376.103699 C230.552416,375.814836 230.318691,375.434643 230.344189,375.060821 L230.339939,375.060821 L230.339939,371.199412 C230.342064,371.554118 230.577913,371.908824 231.049612,372.180694" id="Fill-253" fill="#1E335C"></path>
                    <path d="M282.479674,397.054709 L280.775608,398.038115 L280.008566,398.482029 C279.494372,398.777263 278.805946,398.904702 278.130269,398.874966 C278.092024,398.872842 278.051653,398.870718 278.011282,398.86647 C277.932666,398.862222 277.854049,398.85585 277.775433,398.845231 C277.66282,398.830363 277.550207,398.811247 277.439719,398.787883 C277.399349,398.777263 277.358978,398.764519 277.318607,398.753899 C277.227242,398.730535 277.138002,398.702923 277.050886,398.673188 C277.014765,398.660444 276.978644,398.645576 276.942523,398.632832 C276.825661,398.586104 276.710923,398.535128 276.606809,398.473533 L231.049612,372.180694 C230.577913,371.908824 230.342064,371.554118 230.339939,371.199412 C230.339939,371.1718 230.344189,371.144188 230.346313,371.118701 C230.37606,370.789483 230.605535,370.46876 231.036864,370.21813 L233.510096,368.792934 C234.444995,368.253442 235.968455,368.255566 236.909728,368.799306 L282.466925,395.092145 C282.964122,395.378883 283.197846,395.759077 283.172349,396.132899 C283.151101,396.468489 282.921626,396.799831 282.479674,397.054709" id="Fill-254" fill="#2B4579"></path>
                    <path d="M275.616659,399.253036 C275.614542,399.907224 276.047995,400.563536 276.914901,401.064797 L314.385223,422.689112 C316.110536,423.683138 318.893985,423.68951 320.60655,422.701856 L325.125936,420.093599 C326.077833,419.543487 326.494288,418.804339 326.3838,418.084307 L326.402923,418.084307 L326.402923,422.306794 L326.396549,422.306794 C326.364677,422.926998 325.943972,423.542955 325.125936,424.01448 L320.60655,426.622736 C318.893985,427.61039 316.110536,427.606142 314.385223,426.609992 L276.914901,404.985678 C276.086241,404.505657 275.659162,403.885452 275.623041,403.261 L275.616659,403.261 L275.616659,399.253036" id="Fill-255" fill="#4566A7"></path>
                    <path d="M325.125936,420.093599 L320.60655,422.701856 C318.893985,423.68951 316.110536,423.683138 314.385223,422.689112 L276.914901,401.064797 C276.047995,400.563536 275.614542,399.907224 275.616659,399.253036 C275.618791,398.607344 276.043745,397.963776 276.893653,397.473135 L281.413039,394.864878 C283.125604,393.877224 285.909053,393.883596 287.634366,394.877622 L325.104688,416.504061 C325.869606,416.94585 326.29456,417.508707 326.3838,418.084307 C326.494288,418.804339 326.077833,419.543487 325.125936,420.093599" id="Fill-256" fill="#5986E0"></path>
                    <path d="M205.960326,325.777944 L205.960326,370.211758 C204.111776,370.258486 202.258977,370.230874 200.414676,370.124675 L200.414676,325.8183 C202.258977,325.729092 204.111776,325.716348 205.960326,325.777944" id="Fill-257" fill="#DCEDFF"></path>
                    <path d="M198.321777,325.954235 L198.321777,369.971747 C197.350757,369.884664 196.381862,369.776341 195.421466,369.646777 L195.421466,326.253717 C196.381862,326.13265 197.350757,326.030699 198.321777,325.954235" id="Fill-258" fill="#DCEDFF"></path>
                    <path d="M256.289757,360.005999 C257.203408,358.402389 259.245312,357.841656 260.849514,358.754971 L325.975844,395.818549 C326.781132,396.27733 327.322948,397.016477 327.548174,397.842709 L327.614042,397.863948 L332.549883,402.606812 C332.870723,402.91479 332.940841,403.401183 332.719865,403.785625 C332.494639,404.182811 332.020815,404.367597 331.585237,404.229538 L325.155683,402.184139 L325.096189,402.135287 C325.002699,402.103427 324.907085,402.067319 324.81147,402.029087 C324.097547,402.135287 323.345379,402.012096 322.667577,401.627654 L257.541247,364.564076 C255.937045,363.650761 255.376106,361.609609 256.289757,360.005999" id="Fill-259" fill="#EBEBF6"></path>
                    <path d="M256.534106,357.285171 C257.445632,355.681561 259.487536,355.120828 261.091738,356.034143 L326.220193,393.097721 C327.023356,393.554378 327.565172,394.29565 327.790398,395.121881 L327.856266,395.143121 L332.792107,399.885984 C333.112947,400.193962 333.183064,400.678232 332.962088,401.064797 C332.736863,401.461983 332.263039,401.64677 331.827461,401.508711 L325.397907,399.463311 L325.338413,399.414459 C325.244923,399.382599 325.149308,399.346492 325.053694,399.30826 C324.339771,399.414459 323.587602,399.291268 322.909801,398.906826 L257.78347,361.843248 C256.179269,360.929934 255.620454,358.888782 256.534106,357.285171" id="Fill-260" fill="#9BF34B"></path>
                    <path d="M288.497023,373.55279 C288.662755,373.55279 288.826362,373.529426 288.987845,373.484822 C289.463794,373.355259 289.861126,373.047281 290.103349,372.618236 L290.23296,372.393093 C290.477309,371.964047 290.538927,371.467034 290.407191,370.991261 C290.277581,370.515488 289.969489,370.120427 289.54241,369.878292 L265.78748,356.359113 C265.360401,356.114854 264.86108,356.053259 264.387256,356.182822 C263.911308,356.312385 263.5161,356.620363 263.271752,357.047285 L263.142141,357.276675 C262.63857,358.160254 262.948787,359.285967 263.832691,359.789352 L287.587621,373.308531 C287.870216,373.469954 288.182557,373.55279 288.497023,373.55279" id="Fill-261" fill="#8DD34E"></path>
                    <polyline id="Fill-208" fill="#F3F3F8" points="24.0041723 273.074791 0 259.246214 24.0024283 245.417638 48.0048566 259.246214 24.0041723 273.074791"></polyline>
                    <polyline id="Fill-209" fill="#8DD34E" points="48.0048566 243.558977 24.0041723 257.389294 24.0041723 229.730401 48.0048566 215.903565 48.0048566 243.558977"></polyline>
                    <polyline id="Fill-210" fill="#B1F475" points="24.0041723 229.730401 0 215.903565 24.0024283 202.073248 48.0048566 215.903565 24.0041723 229.730401"></polyline>
                    <polyline id="Fill-211" fill="#9BF34B" points="24.0041723 257.389294 0 243.558977 0 215.903565 24.0041723 229.730401 24.0041723 257.389294"></polyline>
                    <polyline id="Fill-216" fill="#EBEBF6" points="478.264751 432.474786 451.529503 417.072961 478.264751 401.669396 505 417.072961 478.264751 432.474786"></polyline>
                    <polyline id="Fill-217" fill="#2B4579" points="505 399.600156 478.264751 415.001981 478.264751 384.198331 505 368.793026 505 399.600156"></polyline>
                    <polyline id="Fill-218" fill="#E6EEFF" points="478.264751 384.198331 451.529503 368.793026 478.264751 353.391201 505 368.794766 478.264751 384.198331"></polyline>
                    <polyline id="Fill-219" fill="#5986E0" points="478.264751 415.001981 451.529503 399.600156 451.529503 368.793026 478.264751 384.198331 478.264751 415.001981"></polyline>
                    <polyline id="Fill-212" fill="#EBEBF6" points="459.443886 187.151302 432.708638 171.749477 459.442142 156.345912 486.177391 171.749477 459.443886 187.151302"></polyline>
                    <polyline id="Fill-213" fill="#2B4579" points="486.179135 154.276672 459.443886 169.678497 459.443886 138.873107 486.179135 123.469542 486.179135 154.276672"></polyline>
                    <polyline id="Fill-214" fill="#E6EEFF" points="459.443886 138.873107 432.708638 123.469542 459.442142 108.067717 486.177391 123.469542 459.443886 138.873107"></polyline>
                    <polyline id="Fill-215" fill="#5986E0" points="459.443886 169.678497 432.708638 154.276672 432.708638 123.469542 459.443886 138.873107 459.443886 169.678497"></polyline>
                </g>
            </g>
        </g>
    </g>
</svg>