<svg width="478" height="234" viewBox="0 0 478 234" fill="none" xmlns="http://www.w3.org/2000/svg">
<path d="M2 232C2 213.593 2 195.185 2 176.778C2 167.177 5 157.511 5 147.944C5 119.174 4 90.5441 4 61.7778C4 46.6852 4 31.5926 4 16.5C4 7.98917 34.4907 5.25891 41.2222 5C47.9271 4.74212 54.2529 3 61.2222 3C67.8497 3 79.2129 0.667501 85.4444 3.5C88.7466 5.00099 94.941 6 98.5 6C105.063 6 111.216 10 117.5 10C125.607 10 134.544 14.1203 142 17.7778C152.455 22.9065 162.81 25.5104 174.222 27.2222C181.819 28.3618 188.666 32.3682 195.556 35.5C199.506 37.2958 203.522 36.9348 207.444 38.0556C222.248 42.2851 236.242 45 251.944 45C258.385 45 265.54 43 272 43C279.125 43 286.061 39.2652 293.222 39C301.738 38.6846 309.488 32.7249 317.5 30.9444C320.151 30.3554 323.995 27.7939 326 26C330.052 22.3742 335.224 21.2058 340 19.5C348.353 16.5167 356.284 12.2556 364.778 9.22222C369.489 7.53974 375.067 7.09633 380 6C383.979 5.11585 386.778 4.15382 390.778 4C394.639 3.8515 398.59 2 402.5 2C407.648 2 412.796 2 417.944 2C422.504 2 426.557 2.75318 431 3C433.875 3.1597 439.861 3.4851 442.5 4.5C448.919 6.96887 454.173 9 461 9C471.878 9 466.162 37.4919 469.5 43.5C471.425 46.9647 469.105 52.0074 470.222 55.7778C471.513 60.1343 471 64.8962 471 69.4444C471 80.8121 473 91.5344 473 102.556C473 108.642 474 114.391 474 120.5C474 124.538 473.079 129.919 474.222 133.778C476.121 140.185 476.788 153.593 474.5 160C471.969 167.087 473 175.988 473 183.5C473 186.067 474.142 192.302 472.222 194.222C470.32 196.124 466.278 192 464 192" stroke="white" stroke-width="3" stroke-linecap="round"/>
</svg>
